<svg viewBox="0 0 293 341" fill="none" xmlns="http://www.w3.org/2000/svg">
  <!-- RAZIA text letters - Sand color -->
  <g fill="hsl(43, 16%, 70%)">
    <path d="M20.514 311.492C22.706 311.492 24.438 310.929 25.708 309.804C26.976 308.679 27.612 307.021 27.612 304.827C27.612 302.634 26.905 300.975 25.491 299.849C24.076 298.724 21.841 298.162 18.783 298.162C17.917 298.162 17.225 298.191 16.706 298.249C16.186 298.307 15.608 298.393 14.975 298.508V311.492H20.514ZM15.061 323.004V339.883C14.425 340.056 13.43 340.229 12.074 340.402C10.718 340.575 9.377 340.662 8.05 340.662C6.722 340.662 5.553 340.56 4.544 340.359C3.534 340.157 2.697 339.796 2.034 339.277C1.37 338.758 0.864999 338.037 0.518999 337.113C0.172999 336.191 0 334.979 0 333.477V292.449C0 291.237 0.331001 290.3 0.995001 289.636C1.658 288.973 2.567 288.439 3.722 288.035C5.683 287.342 7.963 286.838 10.56 286.52C13.157 286.203 15.927 286.044 18.87 286.044C26.833 286.044 32.834 287.719 36.873 291.064C40.912 294.411 42.932 298.941 42.932 304.654C42.932 308.232 42.009 311.29 40.163 313.829C38.315 316.368 36.123 318.33 33.584 319.714C35.661 322.543 37.709 325.198 39.73 327.678C41.749 330.16 43.336 332.41 44.491 334.429C43.913 336.45 42.859 337.993 41.331 339.06C39.802 340.127 38.086 340.662 36.181 340.662C34.911 340.662 33.815 340.517 32.892 340.229C31.968 339.941 31.16 339.536 30.469 339.017C29.776 338.498 29.14 337.863 28.564 337.112C27.986 336.363 27.438 335.554 26.919 334.689L19.649 323.004H15.061Z" />
    <path d="M90.5396 299.742C89.7306 302.185 88.8216 304.905 87.8126 307.9C86.8026 310.896 85.8936 313.935 85.0856 317.017H95.8196C95.0106 313.876 94.1886 310.809 93.3526 307.813C92.5156 304.818 91.7516 302.128 91.0586 299.742H90.5396ZM80.1526 288.486C81.1336 287.906 82.6196 287.352 84.6106 286.829C86.6016 286.306 88.6056 286.044 90.6256 286.044C93.5106 286.044 96.0646 286.466 98.2866 287.309C100.508 288.153 101.936 289.477 102.572 291.279C103.61 294.303 104.735 297.823 105.947 301.836C107.159 305.849 108.371 309.994 109.582 314.269C110.795 318.545 111.977 322.763 113.132 326.921C114.285 331.08 115.295 334.759 116.161 337.957C115.469 338.773 114.43 339.427 113.045 339.921C111.66 340.414 110.015 340.662 108.111 340.662C106.726 340.662 105.558 340.545 104.606 340.313C103.653 340.08 102.874 339.733 102.268 339.266C101.663 338.801 101.172 338.191 100.797 337.434C100.421 336.679 100.089 335.806 99.8006 334.816L98.2426 328.796H82.5766C82.1136 330.541 81.6526 332.344 81.1916 334.205C80.7286 336.068 80.2676 337.87 79.8066 339.616C78.9976 339.905 78.1476 340.153 77.2526 340.357C76.3576 340.56 75.2756 340.662 74.0066 340.662C71.0636 340.662 68.8856 340.153 67.4716 339.135C66.0576 338.118 65.3516 336.707 65.3516 334.904C65.3516 334.09 65.4666 333.276 65.6976 332.461C65.9276 331.647 66.1876 330.687 66.4766 329.581C66.8796 328.011 67.4426 326.063 68.1646 323.736C68.8856 321.41 69.6796 318.894 70.5446 316.189C71.4096 313.483 72.3326 310.707 73.3146 307.856C74.2946 305.007 75.2186 302.316 76.0846 299.785C76.9496 297.255 77.7426 295.002 78.4646 293.023C79.1856 291.047 79.7476 289.534 80.1526 288.486Z" />
    <path d="M160.305 298.868H139.011C138.607 298.211 138.232 297.314 137.886 296.177C137.54 295.042 137.367 293.845 137.367 292.59C137.367 290.258 137.872 288.585 138.881 287.567C139.89 286.552 141.204 286.044 142.82 286.044H175.106C177.645 288.196 178.915 291.065 178.915 294.653C178.915 296.148 178.582 297.628 177.919 299.092C177.255 300.558 176.404 301.948 175.365 303.262L155.717 327.836H177.876C178.279 328.496 178.655 329.392 179.001 330.527C179.347 331.664 179.52 332.859 179.52 334.114C179.52 336.446 179.015 338.121 178.006 339.137C176.995 340.154 175.682 340.662 174.067 340.662H139.964C138.981 339.825 138.174 338.689 137.54 337.253C136.904 335.819 136.588 334.175 136.588 332.321C136.588 330.827 136.963 329.303 137.713 327.747C138.462 326.193 139.358 324.758 140.397 323.442L160.305 298.868Z" />
    <path d="M218.471 339.869C217.836 340.046 216.84 340.221 215.485 340.397C214.128 340.574 212.787 340.662 211.459 340.662C210.132 340.662 208.964 340.558 207.955 340.354C206.944 340.148 206.093 339.781 205.401 339.252C204.709 338.724 204.189 337.99 203.843 337.05C203.496 336.111 203.323 334.878 203.323 333.35V286.836C203.958 286.72 204.968 286.559 206.353 286.352C207.738 286.147 209.064 286.044 210.334 286.044C211.661 286.044 212.83 286.147 213.84 286.352C214.849 286.559 215.701 286.924 216.393 287.453C217.086 287.982 217.606 288.717 217.952 289.656C218.298 290.596 218.471 291.829 218.471 293.355V339.869Z" />
    <path d="M266.856 299.742C266.047 302.185 265.138 304.905 264.129 307.9C263.119 310.896 262.21 313.935 261.402 317.017H272.136C271.327 313.876 270.505 310.809 269.669 307.813C268.832 304.818 268.068 302.128 267.375 299.742H266.856ZM256.469 288.486C257.449 287.906 258.936 287.352 260.927 286.829C262.918 286.306 264.922 286.044 266.942 286.044C269.827 286.044 272.381 286.466 274.603 287.309C276.824 288.153 278.252 289.477 278.888 291.279C279.926 294.303 281.051 297.823 282.263 301.836C283.475 305.849 284.687 309.994 285.898 314.269C287.111 318.545 288.293 322.763 289.448 326.921C290.601 331.08 291.611 334.759 292.477 337.957C291.785 338.773 290.746 339.427 289.361 339.921C287.976 340.414 286.331 340.662 284.427 340.662C283.042 340.662 281.874 340.545 280.922 340.313C279.969 340.08 279.19 339.733 278.584 339.266C277.979 338.801 277.488 338.191 277.113 337.434C276.737 336.679 276.405 335.806 276.117 334.816L274.559 328.796H258.893C258.43 330.541 257.969 332.344 257.508 334.205C257.045 336.068 256.584 337.87 256.123 339.616C255.314 339.905 254.464 340.153 253.569 340.357C252.674 340.56 251.592 340.662 250.323 340.662C247.38 340.662 245.202 340.153 243.788 339.135C242.374 338.118 241.667 336.707 241.667 334.904C241.667 334.09 241.783 333.276 242.014 332.461C242.244 331.647 242.504 330.687 242.793 329.581C243.196 328.011 243.759 326.063 244.481 323.736C245.202 321.41 245.996 318.894 246.861 316.189C247.726 313.483 248.649 310.707 249.631 307.856C250.611 305.007 251.535 302.316 252.401 299.785C253.266 297.255 254.059 295.002 254.781 293.023C255.502 291.047 256.064 289.534 256.469 288.486Z" />
    <!-- E bars -->
    <path d="M111.231 29.1721H191.126H199.406C199.625 27.9571 199.903 26.0791 200.234 23.5371C200.566 20.9961 200.731 18.4561 200.731 15.9111C200.731 13.5921 200.566 11.4651 200.234 9.53112C199.903 7.59912 199.294 5.94212 198.411 4.55812C197.525 3.17912 196.228 2.07212 194.515 1.24312C192.802 0.415118 190.621 0.000118256 187.969 0.000118256H99.9597C99.6287 1.21912 99.2707 3.09412 98.8837 5.63512C98.4957 8.17912 98.3027 10.7201 98.3027 13.2611C98.3027 18.0121 99.1607 21.8521 100.872 24.7801C102.583 27.7081 106.035 29.1721 111.231 29.1721Z" />
    <path d="M198.41 76.1682C197.524 74.7882 196.227 73.6822 194.515 72.8522C192.801 72.0252 190.621 71.6092 187.969 71.6092H99.9592C99.6282 72.8282 99.2712 74.7042 98.8832 77.2442C98.4962 79.7892 98.3032 82.3292 98.3032 84.8702C98.3032 89.6212 99.1602 93.4612 100.872 96.3892C102.583 99.3172 106.035 100.782 111.23 100.782H199.405C199.625 99.5662 199.902 97.6892 200.234 95.1462C200.565 92.6052 200.731 90.0652 200.731 87.5212C200.731 85.2012 200.565 83.0752 200.234 81.1402C199.902 79.2082 199.293 77.5512 198.41 76.1682Z" />
    <path d="M178.979 60.5848C180.69 57.6568 181.548 53.8168 181.548 49.0658C181.548 46.5248 181.355 43.9838 180.967 41.4398C180.58 38.8998 180.222 37.0238 179.891 35.8048H82.3948C79.7428 35.8048 77.5628 36.2198 75.8488 37.0478C74.1368 37.8778 72.8388 38.9838 71.9538 40.3638C71.0698 41.7468 70.4618 43.4038 70.1298 45.3358C69.7988 47.2698 69.6328 49.3968 69.6328 51.7158C69.6328 54.2608 69.7988 56.8008 70.1298 59.3418C70.4618 61.8838 70.7388 63.7618 70.9588 64.9768H168.621C173.816 64.9768 177.268 63.5128 178.979 60.5848Z" />
    <!-- Icon element with @ symbol -->
    <path d="M148.703 189.61C147.581 191.85 146.135 193.77 144.365 195.364C139.59 199.659 131.741 200.156 127.08 195.095C124.456 192.244 123.471 185.937 123.471 182.174C123.471 177.804 124.711 174.53 127.189 172.346C129.669 170.162 132.917 169.072 136.927 169.072C140.707 169.072 143.893 170.192 146.489 172.436C149.087 174.676 150.385 177.924 150.385 182.174C150.385 184.888 149.826 187.366 148.703 189.61ZM168.445 152.604C164.433 149.418 159.799 147.056 154.545 145.522C153.332 145.167 152.103 144.859 150.861 144.586V136.587H168.621C173.816 136.587 177.268 135.123 178.979 132.195C180.69 129.267 181.548 125.427 181.548 120.675C181.548 118.135 181.355 115.594 180.967 113.05C180.58 110.509 180.222 108.633 179.891 107.415H111.065C108.413 107.415 106.233 107.83 104.519 108.658C102.807 109.487 101.509 110.594 100.624 111.973C99.7403 113.357 99.1323 115.014 98.8003 116.946C98.4693 118.88 98.3033 121.007 98.3033 123.326C98.3033 125.871 98.4693 128.411 98.8003 130.952C99.1323 133.494 99.4093 135.372 99.6293 136.587H128.99V143.767C125.584 144.192 122.353 144.86 119.31 145.788C113.705 147.497 108.925 150.006 104.968 153.312C101.014 156.616 97.9463 160.66 95.7613 165.442C93.5783 170.222 92.4873 175.68 92.4873 181.82C92.4873 187.248 93.3133 192.266 94.9643 196.87C96.6193 201.472 98.7713 205.634 101.427 209.352C104.083 213.07 107.092 216.345 110.457 219.178C115.803 223.68 121.228 225.931 128.258 226.243C134.95 226.539 141.686 225.325 148.083 223.428C154.457 221.538 160.123 218.705 165.079 214.93C170.037 211.15 174.022 206.488 177.032 200.942C180.041 195.392 181.548 188.902 181.548 181.466C181.548 174.972 180.368 169.336 178.005 164.556C175.646 159.776 172.459 155.792 168.445 152.604Z" />
  </g>

  <!-- Yellow dots - eyes - Gold color -->
  <g fill="hsl(49, 100%, 50%)">
    <path d="M145.756 230.026C144.389 230.517 143.152 231.157 142.048 231.946C140.943 232.735 139.97 233.629 139.128 234.629C137.791 236.217 137.122 237.829 137.03 239.917C136.942 241.905 137.302 243.907 137.866 245.807C138.427 247.701 139.269 249.384 140.391 250.856C141.514 252.329 142.899 253.513 144.546 254.407C146.195 255.301 148.123 255.749 150.332 255.749C152.262 255.749 153.936 255.398 155.356 254.697C156.776 253.995 157.96 253.049 158.907 251.856C159.854 250.664 160.555 249.288 161.011 247.727C161.466 246.167 161.695 244.527 161.695 242.809C161.695 240.775 161.44 238.925 160.932 237.259C160.424 235.594 159.679 234.173 158.697 232.998C157.715 231.823 156.514 230.912 155.093 230.263C153.673 229.614 152.051 229.29 150.227 229.29C148.615 229.29 147.124 229.535 145.756 230.026Z" />
    <path d="M121.078 230.026C119.711 230.517 118.474 231.157 117.37 231.946C116.265 232.735 115.292 233.629 114.45 234.629C113.113 236.217 112.444 237.829 112.352 239.917C112.264 241.905 112.624 243.907 113.188 245.807C113.749 247.701 114.591 249.384 115.713 250.856C116.836 252.329 118.221 253.513 119.868 254.407C121.517 255.301 123.445 255.749 125.654 255.749C127.584 255.749 129.258 255.398 130.678 254.697C132.098 253.995 133.282 253.049 134.229 251.856C135.176 250.664 135.877 249.288 136.333 247.727C136.788 246.167 137.017 244.527 137.017 242.809C137.017 240.775 136.762 238.925 136.254 237.259C135.746 235.594 135.001 234.173 134.019 232.998C133.037 231.823 131.836 230.912 130.415 230.263C128.995 229.614 127.373 229.29 125.549 229.29C123.937 229.29 122.446 229.535 121.078 230.026Z" />
  </g>

  <!-- Teal accent - Teal color -->
  <path d="M70.2184 89.7955C70.7094 91.1625 71.3494 92.3995 72.1384 93.5035C72.9274 94.6085 73.8214 95.5815 74.8214 96.4235C76.4094 97.7605 78.0214 98.4295 80.1094 98.5215C82.0974 98.6095 84.0994 98.2495 85.9994 97.6855C87.8934 97.1245 89.5764 96.2825 91.0484 95.1605C92.5214 94.0375 93.7054 92.6525 94.5994 91.0055C95.4934 89.3565 95.9414 87.4285 95.9414 85.2195C95.9414 83.2895 95.5904 81.6155 94.8894 80.1955C94.1874 78.7755 93.2414 77.5915 92.0484 76.6445C90.8564 75.6975 89.4804 74.9965 87.9194 74.5405C86.3594 74.0855 84.7194 73.8565 83.0014 73.8565C80.9674 73.8565 79.1174 74.1115 77.4514 74.6195C75.7864 75.1275 74.3654 75.8725 73.1904 76.8545C72.0154 77.8365 71.1044 79.0375 70.4554 80.4585C69.8064 81.8785 69.4824 83.5005 69.4824 85.3245C69.4824 86.9365 69.7274 88.4275 70.2184 89.7955Z" fill="hsl(174, 100%, 33%)" />

  <!-- Pink accent - Coral color -->
  <g fill="hsl(343, 93%, 46%)">
    <path d="M184.646 123.353C185.137 124.72 185.777 125.957 186.566 127.061C187.355 128.166 188.249 129.139 189.249 129.981C190.837 131.318 192.449 131.987 194.537 132.079C196.525 132.167 198.527 131.807 200.427 131.243C202.321 130.682 204.004 129.84 205.476 128.718C206.949 127.595 208.133 126.21 209.027 124.563C209.921 122.914 210.369 120.986 210.369 118.777C210.369 116.847 210.018 115.173 209.317 113.753C208.615 112.333 207.669 111.149 206.476 110.202C205.284 109.255 203.908 108.554 202.347 108.098C200.787 107.643 199.147 107.414 197.429 107.414C195.395 107.414 193.545 107.669 191.879 108.177C190.214 108.685 188.793 109.43 187.618 110.412C186.443 111.394 185.532 112.595 184.883 114.016C184.234 115.436 183.91 117.058 183.91 118.882C183.91 120.494 184.155 121.985 184.646 123.353Z" />
    <path d="M184.646 148.032C185.137 149.399 185.777 150.636 186.566 151.74C187.355 152.845 188.249 153.818 189.249 154.66C190.837 155.997 192.449 156.666 194.537 156.758C196.525 156.846 198.527 156.486 200.427 155.922C202.321 155.361 204.004 154.519 205.476 153.397C206.949 152.274 208.133 150.889 209.027 149.242C209.921 147.593 210.369 145.665 210.369 143.456C210.369 141.526 210.018 139.852 209.317 138.432C208.615 137.012 207.669 135.828 206.476 134.881C205.284 133.934 203.908 133.233 202.347 132.777C200.787 132.322 199.147 132.093 197.429 132.093C195.395 132.093 193.545 132.348 191.879 132.856C190.214 133.364 188.793 134.109 187.618 135.091C186.443 136.073 185.532 137.274 184.883 138.695C184.234 140.115 183.91 141.737 183.91 143.561C183.91 145.173 184.155 146.664 184.646 148.032Z" />
  </g>
</svg>
